# xmcd CD database file
#
# Track frame offsets:
#	150
#	21645
#	47600
#	68920
#	91475
#	114242
#	134995
#	156709
#	180492
#	200505
#	220422
#	240875
#
# Disc length: 3462 seconds
#
# Revision: 2
# Processed by: cddbd v1.5.1PL2 Copyright (c) Steve Scherf et al.
# Submitted via: CDex 1.51
#
DISCID=b30d840c
DTITLE=Various Artist - Salsa en Grande IV
DYEAR=1994
DGENRE=Salsa
TTITLE0=Rey Ruiz - Luna negra
TTITLE1=Gilberto Santa Rosa - Me volvieron a hablar de ella
TTITLE2=Luis Enrique - La mañana
TTITLE3=Edgar Joel y su Orquesta - Como sera
TTITLE4=Giro - Amor prohibido
TTITLE5=Victor Victor - La mulatona
TTITLE6=Grupo Niche - Un alto en el camino
TTITLE7=Willie Colon - Atrapado
TTITLE8=Victor Manuelle - Me dara el consentimiento
TTITLE9=Willy Chirino - Yo no quiero piedra en mi camino
TTITLE10=A 4 Tiempos - Deseo
TTITLE11=Sergio Vargas - Cuentale a ella
EXTD=YEAR: 1994
EXTT0=
EXTT1=
EXTT2=
EXTT3=
EXTT4=
EXTT5=
EXTT6=
EXTT7=
EXTT8=
EXTT9=
EXTT10=
EXTT11=
PLAYORDER=
